<?xml version="1.0" encoding="UTF-8" standalone="no"?><!DOCTYPE svg PUBLIC "-//W3C//DTD SVG 1.1//EN" "http://www.w3.org/Graphics/SVG/1.1/DTD/svg11.dtd"><svg width="100%" height="100%" viewBox="0 0 1600 1538" version="1.1" xmlns="http://www.w3.org/2000/svg" xmlns:xlink="http://www.w3.org/1999/xlink" xml:space="preserve" xmlns:serif="http://www.serif.com/" style="fill-rule:evenodd;clip-rule:evenodd;stroke-linejoin:round;stroke-miterlimit:2;"><path d="M1599.56,599.556l0,801.724c0,75.323 -61.153,136.477 -136.477,136.477l-1326.61,-0c-75.324,-0 -136.477,-61.154 -136.477,-136.477l-0,-801.724c-0,-75.323 61.153,-136.477 136.477,-136.477l1326.61,0c75.324,0 136.477,61.154 136.477,136.477Zm-731.932,405.067c49.704,-24.923 83.854,-76.355 83.854,-135.7c0,-83.727 -67.976,-151.703 -151.703,-151.703c-83.728,-0 -151.704,67.976 -151.704,151.703c-0,59.345 34.15,110.777 83.854,135.7l-143.799,287.597l423.297,-0l-143.799,-287.597Z" style="fill:url(#_Linear1);"/><path d="M1367.85,463.079l-170.454,0l0,-231.539c0,-81.761 -70.945,-146.313 -156.195,-146.313l-482.845,-0c-85.25,-0 -156.195,64.552 -156.195,146.313l-0,99.144l-170.454,0l0,-99.144c0,-173.828 145.402,-316.767 326.649,-316.767l482.845,0c181.247,0 326.649,142.939 326.649,316.767l-0,231.539Z" style="fill:url(#_Linear2);"/><defs><linearGradient id="_Linear1" x1="0" y1="0" x2="1" y2="0" gradientUnits="userSpaceOnUse" gradientTransform="matrix(-1149.59,1348.83,-1348.83,-1149.59,1149.59,188.926)"><stop offset="0" style="stop-color:#7e1200;stop-opacity:1"/><stop offset="1" style="stop-color:#190266;stop-opacity:1"/></linearGradient><linearGradient id="_Linear2" x1="0" y1="0" x2="1" y2="0" gradientUnits="userSpaceOnUse" gradientTransform="matrix(-1149.59,1348.83,-1348.83,-1149.59,1149.59,188.926)"><stop offset="0" style="stop-color:#7e1200;stop-opacity:1"/><stop offset="1" style="stop-color:#190266;stop-opacity:1"/></linearGradient></defs></svg>